<svg width="24" height="24" viewBox="0 0 24 24" fill="none" xmlns="http://www.w3.org/2000/svg">
<path d="M9.07731 14.4434H5.59031C5.03044 14.4434 4.57657 14.8972 4.57657 15.4571V17.6145M11.9712 8.06641V11.5275M11.9704 5.7437V5.70335M14.4309 5.7437V5.70335M9.5072 5.7437V5.70335M14.9227 14.4434H18.4097C18.9696 14.4434 19.4234 14.8972 19.4234 15.4571V17.6145M8.42501 3.23242H15.5083C16.8433 3.23242 17.9255 4.31464 17.9255 5.64962C17.9255 6.9846 16.8433 8.06683 15.5083 8.06683H8.42501C7.09003 8.06683 6.00781 6.98461 6.00781 5.64963C6.00781 4.31465 7.09003 3.23242 8.42501 3.23242ZM19.4232 20.7669C18.5524 20.7669 17.8464 20.061 17.8464 19.1901C17.8464 18.3192 18.5524 17.6133 19.4232 17.6133C20.2941 17.6133 21 18.3192 21 19.1901C21 20.061 20.2941 20.7669 19.4232 20.7669ZM11.8071 5.73489C11.8071 5.64409 11.8803 5.57031 11.9711 5.57031C12.0618 5.57031 12.1356 5.64409 12.1356 5.73489C12.1356 5.82568 12.0618 5.89944 11.9711 5.89944C11.8803 5.89944 11.8071 5.82568 11.8071 5.73489ZM14.2676 5.73489C14.2676 5.64409 14.3413 5.57031 14.4321 5.57031C14.5229 5.57031 14.5961 5.64409 14.5961 5.73489C14.5961 5.82568 14.5229 5.89944 14.4321 5.89944C14.3413 5.89944 14.2676 5.82568 14.2676 5.73489ZM9.34326 5.73489C9.34326 5.64409 9.41703 5.57031 9.50782 5.57031C9.59862 5.57031 9.67239 5.64409 9.67239 5.73489C9.67239 5.82568 9.59862 5.89944 9.50782 5.89944C9.41703 5.89944 9.34326 5.82568 9.34326 5.73489ZM12.5053 11.7487C12.2102 11.4536 11.7316 11.4536 11.4365 11.7487L9.2989 13.8863C9.00376 14.1814 9.00376 14.66 9.2989 14.9551L11.4365 17.0927C11.7316 17.3878 12.2102 17.3878 12.5053 17.0927L14.6429 14.9551C14.938 14.66 14.938 14.1814 14.6429 13.8863L12.5053 11.7487ZM4.57682 20.767C5.44767 20.767 6.15364 20.061 6.15364 19.1901C6.15364 18.3193 5.44767 17.6133 4.57682 17.6133C3.70597 17.6133 3 18.3193 3 19.1901C3 20.061 3.70597 20.767 4.57682 20.767Z" stroke="#1B1B1B" stroke-width="2" stroke-linecap="round" stroke-linejoin="round"/>
</svg>
