<svg width="24" height="24" viewBox="0 0 24 24" fill="none" xmlns="http://www.w3.org/2000/svg">
<path d="M20.2979 11.0378C20.2979 12.3834 18.1837 13.4751 15.5762 13.4751C12.9687 13.4751 10.8554 12.3834 10.8554 11.0378M20.2979 11.0378C20.2979 9.69224 18.1837 8.60059 15.5762 8.60059C12.9687 8.60059 10.8554 9.69224 10.8554 11.0378M20.2979 11.0378V19.563C20.2979 20.9095 18.1837 22.0002 15.5762 22.0002C12.9687 22.0002 10.8554 20.9095 10.8554 19.563V11.0378M7.72174 12.1365C5.11423 12.1365 3 11.0458 3 9.69922M20.2979 15.3001C20.2979 16.6457 18.1837 17.7374 15.5762 17.7374C12.9687 17.7374 10.8554 16.6457 10.8554 15.3001M7.72174 7.87449C5.11423 7.87449 3 6.78381 3 5.43724M3 5.43724C3 4.09165 5.11423 3 7.72174 3C10.3292 3 12.4434 4.09165 12.4434 5.43724M3 5.43724V13.9624C3 15.309 5.11423 16.3996 7.72174 16.3996" stroke="#1B1B1B" stroke-width="2" stroke-linecap="round" stroke-linejoin="round"/>
</svg>
